<svg width="35" height="34" viewBox="0 0 35 34" fill="none" xmlns="http://www.w3.org/2000/svg">
<path fill-rule="evenodd" clip-rule="evenodd" d="M17.1239 8.39592L6.87677 18.5999L0.224609 8.39032L9.84804 1.02625L17.1239 8.39592Z" fill="#C80409"/>
<path fill-rule="evenodd" clip-rule="evenodd" d="M0.224609 8.39031L6.87677 18.6L17.0859 8.34905L9.84804 1.02625L0.456881 8.2126" fill="#C80409"/>
<path fill-rule="evenodd" clip-rule="evenodd" d="M0.262917 8.36504L6.88311 18.5256L17.0179 8.34929L9.84232 1.08957L0.484277 8.2506L0.426776 8.17546L9.81795 0.989102L9.85106 0.963867L9.88038 0.99347L17.1183 8.31627L17.1513 8.34967L17.1182 8.38287L6.90901 18.6339L6.86783 18.6753L6.83576 18.6262L0.183594 8.41646L0.262917 8.36504Z" fill="#C80409"/>
<path fill-rule="evenodd" clip-rule="evenodd" d="M12.4421 12.951L0.224609 8.39032L9.84804 1.02625L12.4421 12.951Z" fill="#F7323E"/>
<path fill-rule="evenodd" clip-rule="evenodd" d="M21.5947 12.9521L17.0762 8.34981L24.2726 1.15292L33.9572 8.43332L21.5947 12.9521Z" fill="#F7323E"/>
<path fill-rule="evenodd" clip-rule="evenodd" d="M21.5613 12.9849L17.0428 8.38262L17.0098 8.34904L17.0429 8.31582L24.2393 1.11893L24.2683 1.09L24.3012 1.11476L33.9859 8.39514L34.0555 8.44752L33.9736 8.47741L21.6111 12.9962L21.5826 13.0067L21.5613 12.9849ZM17.1432 8.34988L21.6073 12.8968L33.8595 8.41829L24.2775 1.21505L17.1432 8.34988Z" fill="#F7323E"/>
<path fill-rule="evenodd" clip-rule="evenodd" d="M27.2025 18.5591L21.5957 12.9525L34.0562 8.44827L27.2025 18.5591Z" fill="#C80409"/>
<path fill-rule="evenodd" clip-rule="evenodd" d="M16.9503 33.9147L6.875 18.6011L21.5946 12.9525L27.2014 18.5591L16.9503 33.9147Z" fill="#850002"/>
<path fill-rule="evenodd" clip-rule="evenodd" d="M16.9122 33.9405L6.83695 18.6268L6.80469 18.5778L6.85953 18.5566L21.5791 12.908L21.6079 12.897L21.6296 12.9187L27.2297 18.5187L16.991 33.9409L16.9515 34.0002L16.9122 33.9405ZM6.94824 18.6241L16.952 33.8291L27.1418 18.5651L21.5842 13.0076L6.94824 18.6241Z" fill="#850002"/>
<path fill-rule="evenodd" clip-rule="evenodd" d="M21.5946 12.9521L6.875 18.6007L17.0801 8.35388L21.5946 12.9521Z" fill="#A30003"/>
<path fill-rule="evenodd" clip-rule="evenodd" d="M21.6129 12.9966L6.89331 18.6452L6.85782 18.6589L6.80469 18.5778L17.0479 8.32068L17.0818 8.2868L17.1152 8.32087L21.6297 12.9191L21.6805 12.9708L21.6129 12.9966ZM7.06647 18.4772L21.5117 12.9339L17.0813 8.42136L7.06647 18.4772Z" fill="#A30003"/>
<path fill-rule="evenodd" clip-rule="evenodd" d="M27.2024 18.5587L16.9511 33.9999L12.4414 12.9517L27.2024 18.5587Z" fill="#6B0000"/>
<path fill-rule="evenodd" clip-rule="evenodd" d="M12.4414 12.9517L13.1397 16.1971L17.0424 14.6994L12.4414 12.9517Z" fill="#850002"/>
</svg>
